<mxfile host="app.diagrams.net" modified="2022-02-10T11:50:04.735Z" agent="5.0 (Windows NT 10.0; Win64; x64) AppleWebKit/537.36 (KHTML, like Gecko) Chrome/98.0.4758.82 Safari/537.36" etag="T7gbMMILU-J5nafRQNHh" version="16.2.2" type="github">
  <diagram id="prtHgNgQTEPvFCAcTncT" name="Page-1">
    <mxGraphModel dx="1422" dy="754" grid="1" gridSize="10" guides="1" tooltips="1" connect="1" arrows="1" fold="1" page="1" pageScale="1" pageWidth="827" pageHeight="1169" math="0" shadow="0">
      <root>
        <mxCell id="0" />
        <mxCell id="1" parent="0" />
        <mxCell id="QjZRmbvnqPqztiGZf44e-20" value="" style="edgeStyle=orthogonalEdgeStyle;rounded=0;orthogonalLoop=1;jettySize=auto;html=1;fontSize=10;" edge="1" parent="1" source="QjZRmbvnqPqztiGZf44e-1" target="QjZRmbvnqPqztiGZf44e-2">
          <mxGeometry relative="1" as="geometry" />
        </mxCell>
        <mxCell id="QjZRmbvnqPqztiGZf44e-1" value="START" style="ellipse;whiteSpace=wrap;html=1;" vertex="1" parent="1">
          <mxGeometry x="210" width="120" height="80" as="geometry" />
        </mxCell>
        <mxCell id="QjZRmbvnqPqztiGZf44e-19" value="" style="edgeStyle=orthogonalEdgeStyle;rounded=0;orthogonalLoop=1;jettySize=auto;html=1;fontSize=10;" edge="1" parent="1" source="QjZRmbvnqPqztiGZf44e-2" target="QjZRmbvnqPqztiGZf44e-3">
          <mxGeometry relative="1" as="geometry" />
        </mxCell>
        <mxCell id="QjZRmbvnqPqztiGZf44e-2" value="LISTE DE RECETTES" style="shape=document;whiteSpace=wrap;html=1;boundedLbl=1;" vertex="1" parent="1">
          <mxGeometry x="210" y="120" width="120" height="80" as="geometry" />
        </mxCell>
        <mxCell id="QjZRmbvnqPqztiGZf44e-18" value="" style="edgeStyle=orthogonalEdgeStyle;rounded=0;orthogonalLoop=1;jettySize=auto;html=1;fontSize=10;" edge="1" parent="1" source="QjZRmbvnqPqztiGZf44e-3" target="QjZRmbvnqPqztiGZf44e-5">
          <mxGeometry relative="1" as="geometry">
            <mxPoint x="430" y="270" as="targetPoint" />
          </mxGeometry>
        </mxCell>
        <mxCell id="QjZRmbvnqPqztiGZf44e-29" value="" style="edgeStyle=orthogonalEdgeStyle;rounded=0;orthogonalLoop=1;jettySize=auto;html=1;fontSize=10;" edge="1" parent="1" source="QjZRmbvnqPqztiGZf44e-3" target="QjZRmbvnqPqztiGZf44e-6">
          <mxGeometry relative="1" as="geometry" />
        </mxCell>
        <mxCell id="QjZRmbvnqPqztiGZf44e-3" value="SAISIR &amp;gt;3 CARACTERES BARRE DE RECHERCHE" style="rounded=0;whiteSpace=wrap;html=1;" vertex="1" parent="1">
          <mxGeometry x="210" y="240" width="120" height="60" as="geometry" />
        </mxCell>
        <mxCell id="QjZRmbvnqPqztiGZf44e-5" value="MESSAGE D&#39;ERREUR" style="shape=parallelogram;perimeter=parallelogramPerimeter;whiteSpace=wrap;html=1;fixedSize=1;" vertex="1" parent="1">
          <mxGeometry x="470" y="240" width="120" height="60" as="geometry" />
        </mxCell>
        <mxCell id="QjZRmbvnqPqztiGZf44e-15" value="" style="edgeStyle=orthogonalEdgeStyle;rounded=0;orthogonalLoop=1;jettySize=auto;html=1;fontSize=10;" edge="1" parent="1" source="QjZRmbvnqPqztiGZf44e-6" target="QjZRmbvnqPqztiGZf44e-9">
          <mxGeometry relative="1" as="geometry" />
        </mxCell>
        <mxCell id="QjZRmbvnqPqztiGZf44e-16" value="" style="edgeStyle=orthogonalEdgeStyle;rounded=0;orthogonalLoop=1;jettySize=auto;html=1;fontSize=10;" edge="1" parent="1" source="QjZRmbvnqPqztiGZf44e-6" target="QjZRmbvnqPqztiGZf44e-7">
          <mxGeometry relative="1" as="geometry" />
        </mxCell>
        <mxCell id="QjZRmbvnqPqztiGZf44e-6" value="LISTE DE RECETTES A JOUR" style="shape=document;whiteSpace=wrap;html=1;boundedLbl=1;" vertex="1" parent="1">
          <mxGeometry x="210" y="350" width="120" height="80" as="geometry" />
        </mxCell>
        <mxCell id="QjZRmbvnqPqztiGZf44e-7" value="&lt;font style=&quot;font-size: 10px&quot;&gt;CLIQUE SUR LA RECETTE&lt;/font&gt;" style="rhombus;whiteSpace=wrap;html=1;" vertex="1" parent="1">
          <mxGeometry x="40" y="310" width="100" height="120" as="geometry" />
        </mxCell>
        <mxCell id="QjZRmbvnqPqztiGZf44e-25" value="" style="edgeStyle=orthogonalEdgeStyle;rounded=0;orthogonalLoop=1;jettySize=auto;html=1;fontSize=10;" edge="1" parent="1" source="QjZRmbvnqPqztiGZf44e-8" target="QjZRmbvnqPqztiGZf44e-10">
          <mxGeometry relative="1" as="geometry" />
        </mxCell>
        <mxCell id="QjZRmbvnqPqztiGZf44e-8" value="RECHERCHE &lt;br&gt;PAR TAG" style="shape=parallelogram;perimeter=parallelogramPerimeter;whiteSpace=wrap;html=1;fixedSize=1;fontSize=10;" vertex="1" parent="1">
          <mxGeometry x="414" y="460" width="120" height="60" as="geometry" />
        </mxCell>
        <mxCell id="QjZRmbvnqPqztiGZf44e-22" value="" style="edgeStyle=orthogonalEdgeStyle;rounded=0;orthogonalLoop=1;jettySize=auto;html=1;fontSize=10;" edge="1" parent="1" source="QjZRmbvnqPqztiGZf44e-9" target="QjZRmbvnqPqztiGZf44e-8">
          <mxGeometry relative="1" as="geometry" />
        </mxCell>
        <mxCell id="QjZRmbvnqPqztiGZf44e-9" value="LISTE TAGS MISE A JOUR" style="shape=document;whiteSpace=wrap;html=1;boundedLbl=1;fontSize=10;" vertex="1" parent="1">
          <mxGeometry x="414" y="350" width="120" height="80" as="geometry" />
        </mxCell>
        <mxCell id="QjZRmbvnqPqztiGZf44e-10" value="SAISIR MOT CLE&lt;br&gt;BARRE DE RECHERCHE TAG" style="rounded=0;whiteSpace=wrap;html=1;fontSize=10;" vertex="1" parent="1">
          <mxGeometry x="414" y="560" width="120" height="60" as="geometry" />
        </mxCell>
        <mxCell id="QjZRmbvnqPqztiGZf44e-26" value="" style="edgeStyle=orthogonalEdgeStyle;rounded=0;orthogonalLoop=1;jettySize=auto;html=1;fontSize=10;" edge="1" parent="1" source="QjZRmbvnqPqztiGZf44e-12" target="QjZRmbvnqPqztiGZf44e-14">
          <mxGeometry relative="1" as="geometry" />
        </mxCell>
        <mxCell id="QjZRmbvnqPqztiGZf44e-12" value="LISTE TAGS MISE A JOUR" style="shape=document;whiteSpace=wrap;html=1;boundedLbl=1;fontSize=10;" vertex="1" parent="1">
          <mxGeometry x="280" y="650" width="120" height="80" as="geometry" />
        </mxCell>
        <mxCell id="QjZRmbvnqPqztiGZf44e-28" value="" style="edgeStyle=orthogonalEdgeStyle;rounded=0;orthogonalLoop=1;jettySize=auto;html=1;fontSize=10;" edge="1" parent="1" source="QjZRmbvnqPqztiGZf44e-13" target="QjZRmbvnqPqztiGZf44e-6">
          <mxGeometry relative="1" as="geometry" />
        </mxCell>
        <mxCell id="QjZRmbvnqPqztiGZf44e-13" value="AFFICHAGE TAG&amp;nbsp;" style="rounded=0;whiteSpace=wrap;html=1;fontSize=10;" vertex="1" parent="1">
          <mxGeometry x="210" y="460" width="120" height="60" as="geometry" />
        </mxCell>
        <mxCell id="QjZRmbvnqPqztiGZf44e-27" value="" style="edgeStyle=orthogonalEdgeStyle;rounded=0;orthogonalLoop=1;jettySize=auto;html=1;fontSize=10;" edge="1" parent="1" source="QjZRmbvnqPqztiGZf44e-14" target="QjZRmbvnqPqztiGZf44e-13">
          <mxGeometry relative="1" as="geometry" />
        </mxCell>
        <mxCell id="QjZRmbvnqPqztiGZf44e-14" value="&lt;font style=&quot;font-size: 10px&quot;&gt;CLIQUE SUR LE TAG&lt;/font&gt;" style="rhombus;whiteSpace=wrap;html=1;" vertex="1" parent="1">
          <mxGeometry x="230" y="540" width="80" height="80" as="geometry" />
        </mxCell>
        <mxCell id="QjZRmbvnqPqztiGZf44e-24" value="" style="endArrow=classic;html=1;rounded=0;fontSize=10;" edge="1" parent="1">
          <mxGeometry width="50" height="50" relative="1" as="geometry">
            <mxPoint x="470" y="630" as="sourcePoint" />
            <mxPoint x="400" y="680" as="targetPoint" />
          </mxGeometry>
        </mxCell>
      </root>
    </mxGraphModel>
  </diagram>
</mxfile>
